<svg width="30" height="30" viewBox="0 0 30 30" fill="none" xmlns="http://www.w3.org/2000/svg">
<path d="M1.87875 8.72156C1.92633 7.63565 2.39122 6.61 3.17648 5.85844C3.96175 5.10689 5.00679 4.68742 6.09375 4.6875H23.9062C24.9932 4.68742 26.0383 5.10689 26.8235 5.85844C27.6088 6.61 28.0737 7.63565 28.1213 8.72156L26.7375 9.49031L15 15.81L3.2625 9.49031L1.87875 8.72156ZM1.875 10.8638V21.0938C1.875 22.2126 2.31947 23.2857 3.11064 24.0769C3.90181 24.868 4.97487 25.3125 6.09375 25.3125H23.9062C25.0251 25.3125 26.0982 24.868 26.8894 24.0769C27.6805 23.2857 28.125 22.2126 28.125 21.0938V10.8638L27.6319 11.1384L15.4444 17.7009C15.3078 17.7745 15.1551 17.8129 15 17.8129C14.8449 17.8129 14.6922 17.7745 14.5556 17.7009L2.35687 11.1319L1.875 10.8638Z" fill="white"/>
</svg>
