<svg width="42" height="40" viewBox="0 0 42 40" fill="none" xmlns="http://www.w3.org/2000/svg">
<g filter="url(#filter0_ddi_803_553)">
<circle cx="18" cy="16" r="14" fill="#5E4E78"/>
</g>
<path d="M14.5 7.6665H21.5C24.1667 7.6665 26.3333 9.83317 26.3333 12.4998V19.4998C26.3333 20.7817 25.8241 22.0111 24.9177 22.9175C24.0113 23.8239 22.7819 24.3332 21.5 24.3332H14.5C11.8333 24.3332 9.66667 22.1665 9.66667 19.4998V12.4998C9.66667 11.218 10.1759 9.98858 11.0823 9.08215C11.9887 8.17573 13.2181 7.6665 14.5 7.6665ZM14.3333 9.33317C13.5377 9.33317 12.7746 9.64924 12.212 10.2119C11.6494 10.7745 11.3333 11.5375 11.3333 12.3332V19.6665C11.3333 21.3248 12.675 22.6665 14.3333 22.6665H21.6667C22.4623 22.6665 23.2254 22.3504 23.788 21.7878C24.3506 21.2252 24.6667 20.4622 24.6667 19.6665V12.3332C24.6667 10.6748 23.325 9.33317 21.6667 9.33317H14.3333ZM22.375 10.5832C22.6513 10.5832 22.9162 10.6929 23.1116 10.8883C23.3069 11.0836 23.4167 11.3486 23.4167 11.6248C23.4167 11.9011 23.3069 12.1661 23.1116 12.3614C22.9162 12.5568 22.6513 12.6665 22.375 12.6665C22.0987 12.6665 21.8338 12.5568 21.6384 12.3614C21.4431 12.1661 21.3333 11.9011 21.3333 11.6248C21.3333 11.3486 21.4431 11.0836 21.6384 10.8883C21.8338 10.6929 22.0987 10.5832 22.375 10.5832ZM18 11.8332C19.1051 11.8332 20.1649 12.2722 20.9463 13.0536C21.7277 13.835 22.1667 14.8948 22.1667 15.9998C22.1667 17.1049 21.7277 18.1647 20.9463 18.9461C20.1649 19.7275 19.1051 20.1665 18 20.1665C16.8949 20.1665 15.8351 19.7275 15.0537 18.9461C14.2723 18.1647 13.8333 17.1049 13.8333 15.9998C13.8333 14.8948 14.2723 13.835 15.0537 13.0536C15.8351 12.2722 16.8949 11.8332 18 11.8332ZM18 13.4998C17.337 13.4998 16.7011 13.7632 16.2322 14.2321C15.7634 14.7009 15.5 15.3368 15.5 15.9998C15.5 16.6629 15.7634 17.2988 16.2322 17.7676C16.7011 18.2364 17.337 18.4998 18 18.4998C18.663 18.4998 19.2989 18.2364 19.7678 17.7676C20.2366 17.2988 20.5 16.6629 20.5 15.9998C20.5 15.3368 20.2366 14.7009 19.7678 14.2321C19.2989 13.7632 18.663 13.4998 18 13.4998Z" fill="white"/>
<defs>
<filter id="filter0_ddi_803_553" x="0" y="0" width="42" height="40" filterUnits="userSpaceOnUse" color-interpolation-filters="sRGB">
<feFlood flood-opacity="0" result="BackgroundImageFix"/>
<feColorMatrix in="SourceAlpha" type="matrix" values="0 0 0 0 0 0 0 0 0 0 0 0 0 0 0 0 0 0 127 0" result="hardAlpha"/>
<feOffset dx="4" dy="4"/>
<feGaussianBlur stdDeviation="3"/>
<feComposite in2="hardAlpha" operator="out"/>
<feColorMatrix type="matrix" values="0 0 0 0 0 0 0 0 0 0 0 0 0 0 0 0 0 0 0.25 0"/>
<feBlend mode="normal" in2="BackgroundImageFix" result="effect1_dropShadow_803_553"/>
<feColorMatrix in="SourceAlpha" type="matrix" values="0 0 0 0 0 0 0 0 0 0 0 0 0 0 0 0 0 0 127 0" result="hardAlpha"/>
<feOffset dy="2"/>
<feGaussianBlur stdDeviation="2"/>
<feComposite in2="hardAlpha" operator="out"/>
<feColorMatrix type="matrix" values="0 0 0 0 0 0 0 0 0 0 0 0 0 0 0 0 0 0 0.25 0"/>
<feBlend mode="normal" in2="effect1_dropShadow_803_553" result="effect2_dropShadow_803_553"/>
<feBlend mode="normal" in="SourceGraphic" in2="effect2_dropShadow_803_553" result="shape"/>
<feColorMatrix in="SourceAlpha" type="matrix" values="0 0 0 0 0 0 0 0 0 0 0 0 0 0 0 0 0 0 127 0" result="hardAlpha"/>
<feOffset dx="-2"/>
<feGaussianBlur stdDeviation="1"/>
<feComposite in2="hardAlpha" operator="arithmetic" k2="-1" k3="1"/>
<feColorMatrix type="matrix" values="0 0 0 0 0.621667 0 0 0 0 0.621667 0 0 0 0 0.621667 0 0 0 0.25 0"/>
<feBlend mode="normal" in2="shape" result="effect3_innerShadow_803_553"/>
</filter>
</defs>
</svg>
